rec1_005.mot
nRows=20
nColumns=19

name rec1_005.mot
datacolumns 19
datarows 20
range 0.0000000000 0.0380007760
endheader
time	ground_force_vx	ground_force_vy	ground_force_vz	ground_force_px	ground_force_py	ground_force_pz	1_ground_force_vx	1_ground_force_vy	1_ground_force_vz	1_ground_force_px	1_ground_force_py	1_ground_force_pz	ground_torque_x	ground_torque_y	ground_torque_z	1_ground_torque_x	1_ground_torque_y	1_ground_torque_z	
        0.0000000000	       -0.1190213055	        5.4481092907	       -0.3976192233	       -0.7000000000	       -0.0180000000	        0.5600000000	      -68.6839190868	      681.9886997813	       54.7228455095	       -0.7000000000	       -0.0180000000	       -0.5600000000	        1.4078300408	       -0.8530237014	        3.7147615384	     -303.8104880474	      -89.9059651907	      758.0211244594	
        0.0020004156	       -0.1002211986	        5.4899716232	       -0.3738215428	       -0.7000000000	       -0.0180000000	        0.5600000000	      -67.3212287063	      676.5838518393	       55.2815352324	       -0.7000000000	       -0.0180000000	       -0.5600000000	        1.4127203644	       -0.8312661196	        3.7979616611	     -301.1570301668	      -89.8295238082	      750.6880173612	
        0.0040000313	       -0.0843928354	        5.5294386263	       -0.3443708880	       -0.7000000000	       -0.0180000000	        0.5600000000	      -65.9556182665	      671.2485634328	       55.7501072309	       -0.7000000000	       -0.0180000000	       -0.5600000000	        1.4174810466	       -0.8100975450	        3.8739332176	     -298.5419758789	      -89.6546477650	      743.4634873417	
        0.0060005668	       -0.0720294470	        5.5657356852	       -0.3118004814	       -0.7000000000	       -0.0180000000	        0.5600000000	      -64.5867679152	      665.9835731208	       56.1176084361	       -0.7000000000	       -0.0180000000	       -0.5600000000	        1.4222518757	       -0.7880036993	        3.9422856919	     -295.9660306436	      -89.3703082244	      736.3446781251	
        0.0080004223	       -0.0631255647	        5.5979845973	       -0.2789358884	       -0.7000000000	       -0.0180000000	        0.5600000000	      -63.2139512325	      660.7892738635	       56.3767597664	       -0.7000000000	       -0.0180000000	       -0.5600000000	        1.4271566736	       -0.7638213433	        4.0022354592	     -293.4296506780	      -88.9692772399	      729.3279625392	
        0.0100004779	       -0.0578142359	        5.6248485296	       -0.2484055069	       -0.7000000000	       -0.0180000000	        0.5600000000	      -61.8363817419	      655.6659745512	       56.5241046820	       -0.7000000000	       -0.0180000000	       -0.5600000000	        1.4321258644	       -0.7371938107	        4.0518405430	     -290.9331523515	      -88.4481865213	      722.4093193522	
        0.0120001334	       -0.0566937139	        5.6445498899	       -0.2222956657	       -0.7000000000	       -0.0180000000	        0.5600000000	      -60.4534427169	      650.6137295842	       56.5599271290	       -0.7000000000	       -0.0180000000	       -0.5600000000	        1.4368518703	       -0.7082101532	        4.0881575162	     -288.4767292783	      -87.8073456259	      715.5842397190	
        0.0140005490	       -0.0606766750	        5.6553140001	       -0.2019371605	       -0.7000000000	       -0.0180000000	        0.5600000000	      -59.0646847452	      645.6321687044	       56.4878954876	       -0.7000000000	       -0.0180000000	       -0.5600000000	        1.4408831892	       -0.6767496068	        4.1083577010	     -286.0604456621	      -87.0503203737	      708.8476625198	
        0.0160004047	       -0.0705211757	        5.6560064473	       -0.1878260234	       -0.7000000000	       -0.0180000000	        0.5600000000	      -57.6695876857	      640.7208829355	       56.3143982682	       -0.7000000000	       -0.0180000000	       -0.5600000000	        1.4437993507	       -0.6425807969	        4.1109990728	     -283.6843193767	      -86.1832436595	      702.1946550052	
        0.0180006602	       -0.0863549466	        5.6465755062	       -0.1796472905	       -0.7000000000	       -0.0180000000	        0.5600000000	      -56.2672242227	      635.8800899636	       56.0477152195	       -0.7000000000	       -0.0180000000	       -0.5600000000	        1.4453549766	       -0.6061795932	        4.0965250438	     -281.3484415964	      -85.2140187214	      695.6216054511	
        0.0200003957	       -0.1075076667	        5.6279758718	       -0.1763654734	       -0.7000000000	       -0.0180000000	        0.5600000000	      -54.8561012279	      631.1109057698	       55.6970768535	       -0.7000000000	       -0.0180000000	       -0.5600000000	        1.4454865937	       -0.5690321964	        4.0667135508	     -279.0529814089	      -84.1514529003	      689.1270210800	
        0.0220006514	       -0.1327122458	        5.6015934997	       -0.1764779133	       -0.7000000000	       -0.0180000000	        0.5600000000	      -53.4343333889	      626.4152953012	       55.2718323548	       -0.7000000000	       -0.0180000000	       -0.5600000000	        1.4442038400	       -0.5333122043	        4.0235854834	     -276.7981940261	      -83.0045038988	      682.7116822215	
        0.0240003869	       -0.1604843190	        5.5686024128	       -0.1784105943	       -0.7000000000	       -0.0180000000	        0.5600000000	      -52.0000359083	      621.7959805804	       54.7808820097	       -0.7000000000	       -0.0180000000	       -0.5600000000	        1.4414622320	       -0.5012465403	        3.9685989590	     -274.5844938396	      -81.7818055045	      676.3782517041	
        0.0260007225	       -0.1894858525	        5.5297595009	       -0.1808787224	       -0.7000000000	       -0.0180000000	        0.5600000000	      -50.5517284092	      617.2561415292	       54.2323527522	       -0.7000000000	       -0.0180000000	       -0.5600000000	        1.4371182184	       -0.4741095878	        3.9026423520	     -272.4123859978	      -80.4914648646	      670.1304027551	
        0.0280005781	       -0.2187347883	        5.4857732537	       -0.1831522698	       -0.7000000000	       -0.0180000000	        0.5600000000	      -49.0885737318	      612.7989316567	       53.6336498460	       -0.7000000000	       -0.0180000000	       -0.5600000000	        1.4310327945	       -0.4517281697	        3.8267383058	     -270.2823007957	      -79.1412135867	      663.9719012572	
        0.0300006736	       -0.2476013632	        5.4378338912	       -0.1852039918	       -0.7000000000	       -0.0180000000	        0.5600000000	      -47.6103549616	      608.4272713128	       52.9918239946	       -0.7000000000	       -0.0180000000	       -0.5600000000	        1.4232452592	       -0.4330359114	        3.7428361989	     -268.1946117007	      -77.7387745072	      657.9062318590	
        0.0320004893	       -0.2756525453	        5.3877324753	       -0.1876693110	       -0.7000000000	       -0.0180000000	        0.5600000000	      -46.1172555453	      604.1441468279	       52.3138683514	       -0.7000000000	       -0.0180000000	       -0.5600000000	        1.4140524489	       -0.4168522055	        3.6539528659	     -266.1498259341	      -76.2920525918	      651.9369444020	
        0.0340007848	       -0.3024488117	        5.3374805326	       -0.1916296247	       -0.7000000000	       -0.0180000000	        0.5600000000	      -44.6096219714	      599.9529557943	       51.6067515758	       -0.7000000000	       -0.0180000000	       -0.5600000000	        1.4039343264	       -0.4021505671	        3.5635328399	     -264.1486715990	      -74.8090473241	      646.0681688436	
        0.0360004004	       -0.3273894506	        5.2887889094	       -0.1982936306	       -0.7000000000	       -0.0180000000	        0.5600000000	      -43.0879144059	      595.8574298967	       50.8773201384	       -0.7000000000	       -0.0180000000	       -0.5600000000	        1.3933872734	       -0.3875936391	        3.4746116015	     -262.1920067675	      -73.2977094095	      640.3045618659	
        0.0380007760	       -0.3496867342	        5.2427148066	       -0.2086752187	       -0.7000000000	       -0.0180000000	        0.5600000000	      -41.5529049799	      591.8613386681	       50.1322927161	       -0.7000000000	       -0.0180000000	       -0.5600000000	        1.3827737992	       -0.3711027650	        3.3893266469	     -260.2807632798	      -71.7659874917	      634.6507384127	
